{
	"asset":{
		"generator":"Khronos glTF Blender I/O v4.2.60",
		"version":"2.0"
	},
	"scene":0,
	"scenes":[
		{
			"name":"Scene",
			"nodes":[
				0
			]
		}
	],
	"nodes":[
		{
			"mesh":0,
			"name":"StanfordBunny"
		}
	],
	"materials":[
		{
			"doubleSided":true,
			"name":"DefaultMaterial.001",
			"normalTexture":{
				"index":0
			},
			"occlusionTexture":{
				"index":1
			},
			"pbrMetallicRoughness":{
				"baseColorFactor":[
					0.800000011920929,
					0.800000011920929,
					0.800000011920929,
					1
				],
				"metallicRoughnessTexture":{
					"index":1
				}
			}
		}
	],
	"meshes":[
		{
			"name":"defaultMaterial.001",
			"primitives":[
				{
					"attributes":{
						"POSITION":0,
						"NORMAL":1,
						"TEXCOORD_0":2
					},
					"indices":3,
					"material":0
				}
			]
		}
	],
	"textures":[
		{
			"sampler":0,
			"source":0
		},
		{
			"sampler":0,
			"source":1
		}
	],
	"images":[
		{
			"mimeType":"image/png",
			"name":"DefaultMaterial_normal.png.001",
			"uri":"textures/DefaultMaterial_normal.png"
		},
		{
			"mimeType":"image/png",
			"name":"DefaultMaterial_metallicRoughness.png.001",
			"uri":"textures/DefaultMaterial_metallicRoughness.png"
		}
	],
	"accessors":[
		{
			"bufferView":0,
			"componentType":5126,
			"count":3161,
			"max":[
				49.769630432128906,
				99.38265228271484,
				37.92158126831055
			],
			"min":[
				-49.58277893066406,
				0.03353099897503853,
				-37.78636932373047
			],
			"type":"VEC3"
		},
		{
			"bufferView":1,
			"componentType":5126,
			"count":3161,
			"type":"VEC3"
		},
		{
			"bufferView":2,
			"componentType":5126,
			"count":3161,
			"type":"VEC2"
		},
		{
			"bufferView":3,
			"componentType":5123,
			"count":17088,
			"type":"SCALAR"
		}
	],
	"bufferViews":[
		{
			"buffer":0,
			"byteLength":37932,
			"byteOffset":0,
			"target":34962
		},
		{
			"buffer":0,
			"byteLength":37932,
			"byteOffset":37932,
			"target":34962
		},
		{
			"buffer":0,
			"byteLength":25288,
			"byteOffset":75864,
			"target":34962
		},
		{
			"buffer":0,
			"byteLength":34176,
			"byteOffset":101152,
			"target":34963
		}
	],
	"samplers":[
		{
			"magFilter":9729,
			"minFilter":9987
		}
	],
	"buffers":[
		{
			"byteLength":135328,
			"uri":"scene.bin"
		}
	]
}
