{
	"asset":{
		"generator":"Khronos glTF Blender I/O v4.2.60",
		"version":"2.0"
	},
	"scene":0,
	"scenes":[
		{
			"name":"Scene",
			"nodes":[
				0
			]
		}
	],
	"nodes":[
		{
			"mesh":0,
			"name":"StandfordDragon"
		}
	],
	"materials":[
		{
			"doubleSided":true,
			"name":"DefaultMaterial.006",
			"normalTexture":{
				"index":0
			},
			"occlusionTexture":{
				"index":1
			},
			"pbrMetallicRoughness":{
				"baseColorTexture":{
					"index":2
				},
				"metallicRoughnessTexture":{
					"index":1
				}
			}
		}
	],
	"meshes":[
		{
			"name":"defaultMaterial.006",
			"primitives":[
				{
					"attributes":{
						"POSITION":0,
						"NORMAL":1,
						"TEXCOORD_0":2
					},
					"indices":3,
					"material":0
				}
			]
		}
	],
	"textures":[
		{
			"sampler":0,
			"source":0
		},
		{
			"sampler":0,
			"source":1
		},
		{
			"sampler":0,
			"source":2
		}
	],
	"images":[
		{
			"mimeType":"image/png",
			"name":"DefaultMaterial_normal.png",
			"uri":"textures/DefaultMaterial_normal.png"
		},
		{
			"mimeType":"image/png",
			"name":"DefaultMaterial_metallicRoughness.png",
			"uri":"textures/DefaultMaterial_metallicRoughness.png"
		},
		{
			"mimeType":"image/jpeg",
			"name":"DefaultMaterial_baseColor.jpeg",
			"uri":"textures/DefaultMaterial_baseColor.jpeg"
		}
	],
	"accessors":[
		{
			"bufferView":0,
			"componentType":5126,
			"count":11121,
			"max":[
				70.84239959716797,
				99.60400390625,
				31.645431518554688
			],
			"min":[
				-70.67630767822266,
				-0.0041240002028644085,
				-31.56644058227539
			],
			"type":"VEC3"
		},
		{
			"bufferView":1,
			"componentType":5126,
			"count":11121,
			"type":"VEC3"
		},
		{
			"bufferView":2,
			"componentType":5126,
			"count":11121,
			"type":"VEC2"
		},
		{
			"bufferView":3,
			"componentType":5123,
			"count":57996,
			"type":"SCALAR"
		}
	],
	"bufferViews":[
		{
			"buffer":0,
			"byteLength":133452,
			"byteOffset":0,
			"target":34962
		},
		{
			"buffer":0,
			"byteLength":133452,
			"byteOffset":133452,
			"target":34962
		},
		{
			"buffer":0,
			"byteLength":88968,
			"byteOffset":266904,
			"target":34962
		},
		{
			"buffer":0,
			"byteLength":115992,
			"byteOffset":355872,
			"target":34963
		}
	],
	"samplers":[
		{
			"magFilter":9729,
			"minFilter":9987
		}
	],
	"buffers":[
		{
			"byteLength":471864,
			"uri":"scene.bin"
		}
	]
}
