# Blender 4.2.1 LTS
# www.blender.org
mtllib flatsphere.mtl
o Cube
v -0.576808 -0.576808 0.576808
v -0.576808 0.576808 0.576808
v -0.576808 -0.576808 -0.576808
v -0.576808 0.576808 -0.576808
v 0.576808 -0.576808 0.576808
v 0.576808 0.576808 0.576808
v 0.576808 -0.576808 -0.576808
v 0.576808 0.576808 -0.576808
v -0.663380 -0.663380 -0.343480
v -0.706441 -0.706441 0.000000
v -0.663380 -0.663380 0.343480
v -0.663380 -0.343480 0.663380
v -0.706441 0.000000 0.706441
v -0.663380 0.343480 0.663380
v -0.663380 0.663380 0.343480
v -0.706441 0.706441 -0.000000
v -0.663380 0.663380 -0.343480
v -0.663380 0.343480 -0.663380
v -0.706441 -0.000000 -0.706441
v -0.663380 -0.343480 -0.663380
v 0.343480 -0.663380 -0.663380
v 0.000000 -0.706441 -0.706441
v -0.343480 -0.663380 -0.663380
v -0.343480 0.663380 -0.663380
v 0.000000 0.706441 -0.706441
v 0.343480 0.663380 -0.663380
v 0.663380 0.343480 -0.663380
v 0.706441 -0.000000 -0.706441
v 0.663380 -0.343480 -0.663380
v 0.663380 -0.663380 0.343480
v 0.706441 -0.706441 0.000000
v 0.663380 -0.663380 -0.343480
v 0.663380 0.663380 -0.343480
v 0.706441 0.706441 -0.000000
v 0.663380 0.663380 0.343480
v 0.663380 0.343480 0.663380
v 0.706441 0.000000 0.706441
v 0.663380 -0.343480 0.663380
v -0.343480 -0.663380 0.663380
v 0.000000 -0.706441 0.706441
v 0.343480 -0.663380 0.663380
v 0.343480 0.663380 0.663380
v 0.000000 0.706441 0.706441
v -0.343480 0.663380 0.663380
v -0.851637 -0.369349 0.369349
v -0.919100 0.000000 0.391632
v -0.851637 0.369349 0.369349
v -0.919100 -0.391632 0.000000
v -0.999061 0.000000 0.000000
v -0.919100 0.391632 -0.000000
v -0.851637 -0.369349 -0.369349
v -0.919100 -0.000000 -0.391632
v -0.851637 0.369349 -0.369349
v -0.369349 -0.369349 -0.851637
v -0.391632 -0.000000 -0.919100
v -0.369349 0.369349 -0.851637
v 0.000000 -0.391632 -0.919100
v 0.000000 -0.000000 -0.999061
v 0.000000 0.391632 -0.919100
v 0.369349 -0.369349 -0.851637
v 0.391632 -0.000000 -0.919100
v 0.369349 0.369349 -0.851637
v 0.851637 -0.369349 -0.369349
v 0.919100 -0.000000 -0.391632
v 0.851637 0.369349 -0.369349
v 0.919100 -0.391632 0.000000
v 0.999061 0.000000 0.000000
v 0.919100 0.391632 -0.000000
v 0.851637 -0.369349 0.369349
v 0.919100 0.000000 0.391632
v 0.851637 0.369349 0.369349
v 0.369349 -0.369349 0.851637
v 0.391632 0.000000 0.919100
v 0.369349 0.369349 0.851637
v 0.000000 -0.391632 0.919100
v 0.000000 0.000000 0.999061
v 0.000000 0.391632 0.919100
v -0.369349 -0.369349 0.851637
v -0.391632 0.000000 0.919100
v -0.369349 0.369349 0.851637
v -0.369349 -0.851637 -0.369349
v 0.000000 -0.919100 -0.391632
v 0.369349 -0.851637 -0.369349
v -0.391632 -0.919100 0.000000
v 0.000000 -0.999061 0.000000
v 0.391632 -0.919100 0.000000
v -0.369349 -0.851637 0.369349
v 0.000000 -0.919100 0.391632
v 0.369349 -0.851637 0.369349
v 0.369349 0.851637 -0.369349
v 0.000000 0.919100 -0.391632
v -0.369349 0.851637 -0.369349
v 0.391632 0.919100 -0.000000
v 0.000000 0.999061 -0.000000
v -0.391632 0.919100 -0.000000
v 0.369349 0.851637 0.369349
v 0.000000 0.919100 0.391632
v -0.369349 0.851637 0.369349
vn -0.9624 -0.1965 0.1876
vn -0.9624 0.1876 0.1965
vn -0.9624 -0.1965 -0.1876
vn -0.9624 0.1876 -0.1965
vn -0.7294 -0.5074 0.4589
vn -0.8206 -0.1826 0.5415
vn -0.8164 0.1715 0.5515
vn -0.7294 0.4589 0.5074
vn -0.8206 0.5415 0.1826
vn -0.8206 0.5415 -0.1826
vn -0.7294 0.4589 -0.5074
vn -0.8164 0.1715 -0.5515
vn -0.8206 -0.1826 -0.5415
vn -0.7294 -0.5074 -0.4589
vn -0.8164 -0.5515 -0.1715
vn -0.8164 -0.5515 0.1715
vn -0.1876 -0.1965 -0.9624
vn -0.1965 0.1876 -0.9624
vn 0.1876 -0.1965 -0.9624
vn 0.1965 0.1876 -0.9624
vn -0.4589 -0.5074 -0.7294
vn -0.5415 -0.1826 -0.8206
vn -0.5515 0.1715 -0.8164
vn -0.5074 0.4589 -0.7294
vn -0.1826 0.5415 -0.8206
vn 0.1826 0.5415 -0.8206
vn 0.5074 0.4589 -0.7294
vn 0.5515 0.1715 -0.8164
vn 0.5415 -0.1826 -0.8206
vn 0.4589 -0.5074 -0.7294
vn 0.1715 -0.5515 -0.8164
vn -0.1715 -0.5515 -0.8164
vn 0.9624 -0.1965 -0.1876
vn 0.9624 0.1876 -0.1965
vn 0.9624 -0.1965 0.1876
vn 0.9624 0.1876 0.1965
vn 0.7294 -0.5074 -0.4589
vn 0.8206 -0.1826 -0.5415
vn 0.8164 0.1715 -0.5515
vn 0.7294 0.4589 -0.5074
vn 0.8206 0.5415 -0.1826
vn 0.8206 0.5415 0.1826
vn 0.7294 0.4589 0.5074
vn 0.8164 0.1715 0.5515
vn 0.8206 -0.1826 0.5415
vn 0.7294 -0.5074 0.4589
vn 0.8164 -0.5515 0.1715
vn 0.8164 -0.5515 -0.1715
vn 0.1876 -0.1965 0.9624
vn 0.1965 0.1876 0.9624
vn -0.1876 -0.1965 0.9624
vn -0.1965 0.1876 0.9624
vn 0.4589 -0.5074 0.7294
vn 0.5415 -0.1826 0.8206
vn 0.5515 0.1715 0.8164
vn 0.5074 0.4589 0.7294
vn 0.1826 0.5415 0.8206
vn -0.1826 0.5415 0.8206
vn -0.5074 0.4589 0.7294
vn -0.5515 0.1715 0.8164
vn -0.5415 -0.1826 0.8206
vn -0.4589 -0.5074 0.7294
vn -0.1715 -0.5515 0.8164
vn 0.1715 -0.5515 0.8164
vn -0.1965 -0.9624 -0.1876
vn 0.1876 -0.9624 -0.1965
vn -0.1965 -0.9624 0.1876
vn 0.1876 -0.9624 0.1965
vn -0.5074 -0.7294 -0.4589
vn -0.1826 -0.8206 -0.5415
vn 0.1715 -0.8164 -0.5515
vn 0.4589 -0.7294 -0.5074
vn 0.5415 -0.8206 -0.1826
vn 0.5415 -0.8206 0.1826
vn 0.4589 -0.7294 0.5074
vn 0.1715 -0.8164 0.5515
vn -0.1826 -0.8206 0.5415
vn -0.5074 -0.7294 0.4589
vn -0.5515 -0.8164 0.1715
vn -0.5515 -0.8164 -0.1715
vn 0.1965 0.9624 -0.1876
vn -0.1876 0.9624 -0.1965
vn 0.1965 0.9624 0.1876
vn -0.1876 0.9624 0.1965
vn 0.5074 0.7294 -0.4589
vn 0.1826 0.8206 -0.5415
vn -0.1715 0.8164 -0.5515
vn -0.4589 0.7294 -0.5074
vn -0.5415 0.8206 -0.1826
vn -0.5415 0.8206 0.1826
vn -0.4589 0.7294 0.5074
vn -0.1715 0.8164 0.5515
vn 0.1826 0.8206 0.5415
vn 0.5074 0.7294 0.4589
vn 0.5515 0.8164 0.1715
vn 0.5515 0.8164 -0.1715
vn -0.9624 -0.1876 0.1965
vn -0.9624 0.1965 0.1876
vn -0.9624 -0.1876 -0.1965
vn -0.9624 0.1965 -0.1876
vn -0.7294 -0.4589 0.5074
vn -0.8164 -0.1715 0.5515
vn -0.8206 0.1826 0.5415
vn -0.7294 0.5074 0.4589
vn -0.8164 0.5515 0.1715
vn -0.8164 0.5515 -0.1715
vn -0.7294 0.5074 -0.4589
vn -0.8206 0.1826 -0.5415
vn -0.8164 -0.1715 -0.5515
vn -0.7294 -0.4589 -0.5074
vn -0.8206 -0.5415 -0.1826
vn -0.8206 -0.5415 0.1826
vn -0.1965 -0.1876 -0.9624
vn -0.1876 0.1965 -0.9624
vn 0.1965 -0.1876 -0.9624
vn 0.1876 0.1965 -0.9624
vn -0.5074 -0.4589 -0.7294
vn -0.5515 -0.1715 -0.8164
vn -0.5415 0.1826 -0.8206
vn -0.4589 0.5074 -0.7294
vn -0.1715 0.5515 -0.8164
vn 0.1715 0.5515 -0.8164
vn 0.4589 0.5074 -0.7294
vn 0.5415 0.1826 -0.8206
vn 0.5515 -0.1715 -0.8164
vn 0.5074 -0.4589 -0.7294
vn 0.1826 -0.5415 -0.8206
vn -0.1826 -0.5415 -0.8206
vn 0.9624 -0.1876 -0.1965
vn 0.9624 0.1965 -0.1876
vn 0.9624 -0.1876 0.1965
vn 0.9624 0.1965 0.1876
vn 0.7294 -0.4589 -0.5074
vn 0.8164 -0.1715 -0.5515
vn 0.8206 0.1826 -0.5415
vn 0.7294 0.5074 -0.4589
vn 0.8164 0.5515 -0.1715
vn 0.8164 0.5515 0.1715
vn 0.7294 0.5074 0.4589
vn 0.8206 0.1826 0.5415
vn 0.8164 -0.1715 0.5515
vn 0.7294 -0.4589 0.5074
vn 0.8206 -0.5415 0.1826
vn 0.8206 -0.5415 -0.1826
vn 0.1965 -0.1876 0.9624
vn 0.1876 0.1965 0.9624
vn -0.1965 -0.1876 0.9624
vn -0.1876 0.1965 0.9624
vn 0.5074 -0.4589 0.7294
vn 0.5515 -0.1715 0.8164
vn 0.5415 0.1826 0.8206
vn 0.4589 0.5074 0.7294
vn 0.1715 0.5515 0.8164
vn -0.1715 0.5515 0.8164
vn -0.4589 0.5074 0.7294
vn -0.5415 0.1826 0.8206
vn -0.5515 -0.1715 0.8164
vn -0.5074 -0.4589 0.7294
vn -0.1826 -0.5415 0.8206
vn 0.1826 -0.5415 0.8206
vn -0.1876 -0.9624 -0.1965
vn 0.1965 -0.9624 -0.1876
vn -0.1876 -0.9624 0.1965
vn 0.1965 -0.9624 0.1876
vn -0.4589 -0.7294 -0.5074
vn -0.1715 -0.8164 -0.5515
vn 0.1826 -0.8206 -0.5415
vn 0.5074 -0.7294 -0.4589
vn 0.5515 -0.8164 -0.1715
vn 0.5515 -0.8164 0.1715
vn 0.5074 -0.7294 0.4589
vn 0.1826 -0.8206 0.5415
vn -0.1715 -0.8164 0.5515
vn -0.4589 -0.7294 0.5074
vn -0.5415 -0.8206 0.1826
vn -0.5415 -0.8206 -0.1826
vn 0.1876 0.9624 -0.1965
vn -0.1965 0.9624 -0.1876
vn 0.1876 0.9624 0.1965
vn -0.1965 0.9624 0.1876
vn 0.4589 0.7294 -0.5074
vn 0.1715 0.8164 -0.5515
vn -0.1826 0.8206 -0.5415
vn -0.5074 0.7294 -0.4589
vn -0.5515 0.8164 -0.1715
vn -0.5515 0.8164 0.1715
vn -0.5074 0.7294 0.4589
vn -0.1826 0.8206 0.5415
vn 0.1715 0.8164 0.5515
vn 0.4589 0.7294 0.5074
vn 0.5415 0.8206 0.1826
vn 0.5415 0.8206 -0.1826
vt 0.213573 0.213573
vt 0.500000 0.500000
vt 0.500000 0.213573
vt 0.213573 0.786427
vt 0.213573 0.500000
vt 0.786427 0.213573
vt 0.786427 0.786427
vt 0.786427 0.500000
vt -0.000001 -0.000001
vt 0.213573 -0.000001
vt -0.000001 0.213573
vt -0.000001 0.786427
vt -0.000001 0.500000
vt -0.000001 1.000001
vt 0.213573 1.000001
vt 0.500000 0.786427
vt 0.786427 1.000001
vt 1.000001 1.000001
vt 1.000001 0.786427
vt 1.000001 0.500000
vt 1.000001 0.213573
vt 1.000001 -0.000001
vt 0.786427 -0.000001
vt 0.500000 -0.000001
vt 0.500000 1.000001
s 0
usemtl Material.003
f 45/1/1 49/2/1 48/3/1
f 47/4/2 49/2/2 46/5/2
f 49/2/3 51/6/3 48/3/3
f 49/2/4 53/7/4 52/8/4
f 1/9/5 45/1/5 11/10/5
f 12/11/6 46/5/6 45/1/6
f 14/12/7 46/5/7 13/13/7
f 2/14/8 47/4/8 14/12/8
f 15/15/9 50/16/9 47/4/9
f 50/16/10 17/17/10 53/7/10
f 53/7/11 4/18/11 18/19/11
f 52/8/12 18/19/12 19/20/12
f 52/8/13 20/21/13 51/6/13
f 51/6/14 3/22/14 9/23/14
f 48/3/15 9/23/15 10/24/15
f 11/10/16 48/3/16 10/24/16
f 54/1/17 58/2/17 57/3/17
f 56/4/18 58/2/18 55/5/18
f 58/2/19 60/6/19 57/3/19
f 58/2/20 62/7/20 61/8/20
f 3/9/21 54/1/21 23/10/21
f 20/11/22 55/5/22 54/1/22
f 18/12/23 55/5/23 19/13/23
f 4/14/24 56/4/24 18/12/24
f 24/15/25 59/16/25 56/4/25
f 59/16/26 26/17/26 62/7/26
f 62/7/27 8/18/27 27/19/27
f 61/8/28 27/19/28 28/20/28
f 61/8/29 29/21/29 60/6/29
f 60/6/30 7/22/30 21/23/30
f 57/3/31 21/23/31 22/24/31
f 23/10/32 57/3/32 22/24/32
f 63/6/33 67/2/33 66/3/33
f 65/7/34 67/2/34 64/8/34
f 67/2/35 69/1/35 66/3/35
f 67/2/36 71/4/36 70/5/36
f 7/22/37 63/6/37 32/23/37
f 29/21/38 64/8/38 63/6/38
f 27/19/39 64/8/39 28/20/39
f 8/18/40 65/7/40 27/19/40
f 33/17/41 68/16/41 65/7/41
f 68/16/42 35/15/42 71/4/42
f 71/4/43 6/14/43 36/12/43
f 70/5/44 36/12/44 37/13/44
f 70/5/45 38/11/45 69/1/45
f 69/1/46 5/9/46 30/10/46
f 66/3/47 30/10/47 31/24/47
f 32/23/48 66/3/48 31/24/48
f 72/6/49 76/2/49 75/3/49
f 74/7/50 76/2/50 73/8/50
f 76/2/51 78/1/51 75/3/51
f 76/2/52 80/4/52 79/5/52
f 5/22/53 72/6/53 41/23/53
f 38/21/54 73/8/54 72/6/54
f 36/19/55 73/8/55 37/20/55
f 6/18/56 74/7/56 36/19/56
f 42/17/57 77/16/57 74/7/57
f 77/16/58 44/15/58 80/4/58
f 80/4/59 2/14/59 14/12/59
f 79/5/60 14/12/60 13/13/60
f 79/5/61 12/11/61 78/1/61
f 78/1/62 1/9/62 39/10/62
f 75/3/63 39/10/63 40/24/63
f 41/23/64 75/3/64 40/24/64
f 81/4/65 85/2/65 84/5/65
f 83/7/66 85/2/66 82/16/66
f 85/2/67 87/1/67 84/5/67
f 85/2/68 89/6/68 88/3/68
f 3/14/69 81/4/69 9/12/69
f 23/15/70 82/16/70 81/4/70
f 21/17/71 82/16/71 22/25/71
f 7/18/72 83/7/72 21/17/72
f 32/19/73 86/8/73 83/7/73
f 86/8/74 30/21/74 89/6/74
f 89/6/75 5/22/75 41/23/75
f 88/3/76 41/23/76 40/24/76
f 88/3/77 39/10/77 87/1/77
f 87/1/78 1/9/78 11/11/78
f 84/5/79 11/11/79 10/13/79
f 9/12/80 84/5/80 10/13/80
f 90/7/81 94/2/81 93/8/81
f 92/4/82 94/2/82 91/16/82
f 94/2/83 96/6/83 93/8/83
f 94/2/84 98/1/84 97/3/84
f 8/18/85 90/7/85 33/19/85
f 26/17/86 91/16/86 90/7/86
f 24/15/87 91/16/87 25/25/87
f 4/14/88 92/4/88 24/15/88
f 17/12/89 95/5/89 92/4/89
f 95/5/90 15/11/90 98/1/90
f 98/1/91 2/9/91 44/10/91
f 97/3/92 44/10/92 43/24/92
f 97/3/93 42/23/93 96/6/93
f 96/6/94 6/22/94 35/21/94
f 93/8/95 35/21/95 34/20/95
f 33/19/96 93/8/96 34/20/96
f 45/1/97 46/5/97 49/2/97
f 47/4/98 50/16/98 49/2/98
f 49/2/99 52/8/99 51/6/99
f 49/2/100 50/16/100 53/7/100
f 1/9/101 12/11/101 45/1/101
f 12/11/102 13/13/102 46/5/102
f 14/12/103 47/4/103 46/5/103
f 2/14/104 15/15/104 47/4/104
f 15/15/105 16/25/105 50/16/105
f 50/16/106 16/25/106 17/17/106
f 53/7/107 17/17/107 4/18/107
f 52/8/108 53/7/108 18/19/108
f 52/8/109 19/20/109 20/21/109
f 51/6/110 20/21/110 3/22/110
f 48/3/111 51/6/111 9/23/111
f 11/10/112 45/1/112 48/3/112
f 54/1/113 55/5/113 58/2/113
f 56/4/114 59/16/114 58/2/114
f 58/2/115 61/8/115 60/6/115
f 58/2/116 59/16/116 62/7/116
f 3/9/117 20/11/117 54/1/117
f 20/11/118 19/13/118 55/5/118
f 18/12/119 56/4/119 55/5/119
f 4/14/120 24/15/120 56/4/120
f 24/15/121 25/25/121 59/16/121
f 59/16/122 25/25/122 26/17/122
f 62/7/123 26/17/123 8/18/123
f 61/8/124 62/7/124 27/19/124
f 61/8/125 28/20/125 29/21/125
f 60/6/126 29/21/126 7/22/126
f 57/3/127 60/6/127 21/23/127
f 23/10/128 54/1/128 57/3/128
f 63/6/129 64/8/129 67/2/129
f 65/7/130 68/16/130 67/2/130
f 67/2/131 70/5/131 69/1/131
f 67/2/132 68/16/132 71/4/132
f 7/22/133 29/21/133 63/6/133
f 29/21/134 28/20/134 64/8/134
f 27/19/135 65/7/135 64/8/135
f 8/18/136 33/17/136 65/7/136
f 33/17/137 34/25/137 68/16/137
f 68/16/138 34/25/138 35/15/138
f 71/4/139 35/15/139 6/14/139
f 70/5/140 71/4/140 36/12/140
f 70/5/141 37/13/141 38/11/141
f 69/1/142 38/11/142 5/9/142
f 66/3/143 69/1/143 30/10/143
f 32/23/144 63/6/144 66/3/144
f 72/6/145 73/8/145 76/2/145
f 74/7/146 77/16/146 76/2/146
f 76/2/147 79/5/147 78/1/147
f 76/2/148 77/16/148 80/4/148
f 5/22/149 38/21/149 72/6/149
f 38/21/150 37/20/150 73/8/150
f 36/19/151 74/7/151 73/8/151
f 6/18/152 42/17/152 74/7/152
f 42/17/153 43/25/153 77/16/153
f 77/16/154 43/25/154 44/15/154
f 80/4/155 44/15/155 2/14/155
f 79/5/156 80/4/156 14/12/156
f 79/5/157 13/13/157 12/11/157
f 78/1/158 12/11/158 1/9/158
f 75/3/159 78/1/159 39/10/159
f 41/23/160 72/6/160 75/3/160
f 81/4/161 82/16/161 85/2/161
f 83/7/162 86/8/162 85/2/162
f 85/2/163 88/3/163 87/1/163
f 85/2/164 86/8/164 89/6/164
f 3/14/165 23/15/165 81/4/165
f 23/15/166 22/25/166 82/16/166
f 21/17/167 83/7/167 82/16/167
f 7/18/168 32/19/168 83/7/168
f 32/19/169 31/20/169 86/8/169
f 86/8/170 31/20/170 30/21/170
f 89/6/171 30/21/171 5/22/171
f 88/3/172 89/6/172 41/23/172
f 88/3/173 40/24/173 39/10/173
f 87/1/174 39/10/174 1/9/174
f 84/5/175 87/1/175 11/11/175
f 9/12/176 81/4/176 84/5/176
f 90/7/177 91/16/177 94/2/177
f 92/4/178 95/5/178 94/2/178
f 94/2/179 97/3/179 96/6/179
f 94/2/180 95/5/180 98/1/180
f 8/18/181 26/17/181 90/7/181
f 26/17/182 25/25/182 91/16/182
f 24/15/183 92/4/183 91/16/183
f 4/14/184 17/12/184 92/4/184
f 17/12/185 16/13/185 95/5/185
f 95/5/186 16/13/186 15/11/186
f 98/1/187 15/11/187 2/9/187
f 97/3/188 98/1/188 44/10/188
f 97/3/189 43/24/189 42/23/189
f 96/6/190 42/23/190 6/22/190
f 93/8/191 96/6/191 35/21/191
f 33/19/192 90/7/192 93/8/192
