# Blender 4.2.1 LTS
# www.blender.org
mtllib torus.mtl
o Torus
v 1.000000 0.000000 0.000000
v 0.936339 0.176336 0.000000
v 0.769672 0.285317 0.000000
v 0.563661 0.285317 0.000000
v 0.396994 0.176336 0.000000
v 0.333333 0.000000 0.000000
v 0.396994 -0.176336 0.000000
v 0.563661 -0.285317 0.000000
v 0.769672 -0.285317 0.000000
v 0.936339 -0.176336 0.000000
v 0.809017 0.000000 -0.618034
v 0.757514 0.176336 -0.578689
v 0.622678 0.285317 -0.475684
v 0.456011 0.285317 -0.348362
v 0.321175 0.176336 -0.245356
v 0.269672 0.000000 -0.206011
v 0.321175 -0.176336 -0.245356
v 0.456011 -0.285317 -0.348362
v 0.622678 -0.285317 -0.475684
v 0.757514 -0.176336 -0.578689
v 0.309017 0.000000 -1.000000
v 0.289345 0.176336 -0.936339
v 0.237842 0.285317 -0.769672
v 0.174181 0.285317 -0.563661
v 0.122678 0.176336 -0.396994
v 0.103006 0.000000 -0.333333
v 0.122678 -0.176336 -0.396994
v 0.174181 -0.285317 -0.563661
v 0.237842 -0.285317 -0.769672
v 0.289345 -0.176336 -0.936339
v -0.309017 0.000000 -1.000000
v -0.289345 0.176336 -0.936339
v -0.237842 0.285317 -0.769672
v -0.174181 0.285317 -0.563661
v -0.122678 0.176336 -0.396994
v -0.103006 0.000000 -0.333333
v -0.122678 -0.176336 -0.396994
v -0.174181 -0.285317 -0.563661
v -0.237842 -0.285317 -0.769672
v -0.289345 -0.176336 -0.936339
v -0.809017 0.000000 -0.618034
v -0.757514 0.176336 -0.578689
v -0.622678 0.285317 -0.475684
v -0.456011 0.285317 -0.348362
v -0.321175 0.176336 -0.245356
v -0.269672 0.000000 -0.206011
v -0.321175 -0.176336 -0.245356
v -0.456011 -0.285317 -0.348362
v -0.622678 -0.285317 -0.475684
v -0.757514 -0.176336 -0.578689
v -1.000000 0.000000 -0.000000
v -0.936339 0.176336 -0.000000
v -0.769672 0.285317 -0.000000
v -0.563661 0.285317 -0.000000
v -0.396994 0.176336 -0.000000
v -0.333333 0.000000 -0.000000
v -0.396994 -0.176336 -0.000000
v -0.563661 -0.285317 -0.000000
v -0.769672 -0.285317 -0.000000
v -0.936339 -0.176336 -0.000000
v -0.809017 0.000000 0.618034
v -0.757514 0.176336 0.578689
v -0.622678 0.285317 0.475684
v -0.456011 0.285317 0.348362
v -0.321175 0.176336 0.245356
v -0.269672 0.000000 0.206011
v -0.321175 -0.176336 0.245356
v -0.456011 -0.285317 0.348362
v -0.622678 -0.285317 0.475684
v -0.757514 -0.176336 0.578689
v -0.309017 0.000000 1.000000
v -0.289345 0.176336 0.936339
v -0.237842 0.285317 0.769672
v -0.174181 0.285317 0.563661
v -0.122678 0.176336 0.396994
v -0.103006 0.000000 0.333333
v -0.122678 -0.176336 0.396994
v -0.174181 -0.285317 0.563661
v -0.237842 -0.285317 0.769672
v -0.289345 -0.176336 0.936339
v 0.309017 0.000000 1.000000
v 0.289345 0.176336 0.936339
v 0.237842 0.285317 0.769672
v 0.174181 0.285317 0.563661
v 0.122678 0.176336 0.396994
v 0.103006 0.000000 0.333333
v 0.122678 -0.176336 0.396994
v 0.174181 -0.285317 0.563661
v 0.237842 -0.285317 0.769672
v 0.289345 -0.176336 0.936339
v 0.809017 0.000000 0.618034
v 0.757514 0.176336 0.578690
v 0.622678 0.285317 0.475684
v 0.456011 0.285317 0.348362
v 0.321175 0.176336 0.245356
v 0.269672 0.000000 0.206011
v 0.321175 -0.176336 0.245356
v 0.456011 -0.285317 0.348362
v 0.622678 -0.285317 0.475684
v 0.757514 -0.176336 0.578690
vn 0.9032 0.3261 -0.2791
vn 0.5396 0.8252 -0.1667
vn -0.0000 1.0000 -0.0000
vn -0.5396 0.8252 0.1667
vn -0.9032 0.3261 0.2791
vn -0.9032 -0.3261 0.2791
vn -0.5396 -0.8252 0.1667
vn -0.0000 -1.0000 -0.0000
vn 0.5396 -0.8252 -0.1667
vn 0.9032 -0.3261 -0.2791
vn 0.5722 0.3342 -0.7490
vn 0.3364 0.8324 -0.4404
vn -0.3364 0.8324 0.4404
vn -0.5722 0.3342 0.7490
vn -0.5722 -0.3342 0.7490
vn -0.3364 -0.8324 0.4404
vn 0.3364 -0.8324 -0.4404
vn 0.5722 -0.3342 -0.7490
vn -0.0000 0.3396 -0.9406
vn -0.0000 0.8370 -0.5473
vn -0.0000 0.8370 0.5473
vn -0.0000 0.3396 0.9406
vn -0.0000 -0.3396 0.9406
vn -0.0000 -0.8370 0.5473
vn -0.0000 -0.8370 -0.5473
vn -0.0000 -0.3396 -0.9406
vn -0.5722 0.3342 -0.7490
vn -0.3364 0.8324 -0.4404
vn 0.3364 0.8324 0.4404
vn 0.5722 0.3342 0.7490
vn 0.5722 -0.3342 0.7490
vn 0.3364 -0.8324 0.4404
vn -0.3364 -0.8324 -0.4404
vn -0.5722 -0.3342 -0.7490
vn -0.9032 0.3261 -0.2791
vn -0.5396 0.8252 -0.1667
vn 0.5396 0.8252 0.1667
vn 0.9032 0.3261 0.2791
vn 0.9032 -0.3261 0.2791
vn 0.5396 -0.8252 0.1667
vn -0.5396 -0.8252 -0.1667
vn -0.9032 -0.3261 -0.2791
vt 0.700000 0.600000
vt 0.600000 0.700000
vt 0.600000 0.600000
vt 0.700000 0.800000
vt 0.600000 0.800000
vt 0.700000 0.900000
vt 0.600000 0.900000
vt 0.600000 1.000000
vt 0.700000 -0.000000
vt 0.600000 0.100000
vt 0.600000 -0.000000
vt 0.700000 0.100000
vt 0.600000 0.200000
vt 0.700000 0.200000
vt 0.600000 0.300000
vt 0.700000 0.400000
vt 0.600000 0.400000
vt 0.600000 0.500000
vt 0.700000 0.500000
vt 0.800000 0.600000
vt 0.700000 0.700000
vt 0.800000 0.700000
vt 0.800000 0.800000
vt 0.800000 0.900000
vt 0.700000 1.000000
vt 0.800000 -0.000000
vt 0.800000 0.100000
vt 0.800000 0.200000
vt 0.700000 0.300000
vt 0.800000 0.400000
vt 0.800000 0.500000
vt 0.900000 0.600000
vt 0.900000 0.700000
vt 0.900000 0.800000
vt 0.900000 0.900000
vt 0.800000 1.000000
vt 0.900000 0.100000
vt 0.900000 0.300000
vt 0.800000 0.300000
vt 0.900000 0.400000
vt 0.900000 0.500000
vt 1.000000 0.600000
vt 1.000000 0.700000
vt 1.000000 0.800000
vt 1.000000 0.900000
vt 0.900000 1.000000
vt 1.000000 -0.000000
vt 0.900000 -0.000000
vt 1.000000 0.100000
vt 0.900000 0.200000
vt 1.000000 0.200000
vt 1.000000 0.300000
vt 1.000000 0.400000
vt 1.000000 0.500000
vt 0.100000 0.600000
vt -0.000000 0.700000
vt -0.000000 0.600000
vt 0.100000 0.700000
vt -0.000000 0.800000
vt 0.100000 0.800000
vt -0.000000 0.900000
vt 0.100000 0.900000
vt -0.000000 1.000000
vt 0.100000 -0.000000
vt -0.000000 0.100000
vt -0.000000 -0.000000
vt 0.100000 0.100000
vt -0.000000 0.200000
vt 0.100000 0.200000
vt -0.000000 0.300000
vt 0.100000 0.300000
vt -0.000000 0.400000
vt 0.100000 0.400000
vt -0.000000 0.500000
vt 0.200000 0.600000
vt 0.200000 0.700000
vt 0.200000 0.800000
vt 0.200000 0.900000
vt 0.100000 1.000000
vt 0.200000 -0.000000
vt 0.200000 0.200000
vt 0.200000 0.300000
vt 0.200000 0.500000
vt 0.100000 0.500000
vt 0.300000 0.700000
vt 0.300000 0.800000
vt 0.300000 0.900000
vt 0.200000 1.000000
vt 0.300000 -0.000000
vt 0.200000 0.100000
vt 0.300000 0.100000
vt 0.300000 0.200000
vt 0.300000 0.300000
vt 0.200000 0.400000
vt 0.300000 0.500000
vt 0.400000 0.600000
vt 0.300000 0.600000
vt 0.400000 0.700000
vt 0.400000 0.900000
vt 0.400000 1.000000
vt 0.300000 1.000000
vt 0.400000 0.100000
vt 0.400000 0.200000
vt 0.400000 0.300000
vt 0.300000 0.400000
vt 0.400000 0.400000
vt 0.400000 0.500000
vt 0.500000 0.600000
vt 0.500000 0.700000
vt 0.400000 0.800000
vt 0.500000 0.800000
vt 0.500000 1.000000
vt 0.500000 -0.000000
vt 0.400000 -0.000000
vt 0.500000 0.200000
vt 0.500000 0.300000
vt 0.500000 0.400000
vt 0.500000 0.500000
vt 0.500000 0.900000
vt 0.500000 0.100000
vt 1.000000 1.000000
s 0
f 11/1/1 2/2/1 1/3/1
f 2/2/2 13/4/2 3/5/2
f 3/5/3 14/6/3 4/7/3
f 14/6/4 5/8/4 4/7/4
f 15/9/5 6/10/5 5/11/5
f 16/12/6 7/13/6 6/10/6
f 17/14/7 8/15/7 7/13/7
f 8/15/8 19/16/8 9/17/8
f 19/16/9 10/18/9 9/17/9
f 20/19/10 1/3/10 10/18/10
f 21/20/11 12/21/11 11/1/11
f 22/22/12 13/4/12 12/21/12
f 23/23/3 14/6/3 13/4/3
f 24/24/13 15/25/13 14/6/13
f 25/26/14 16/12/14 15/9/14
f 26/27/15 17/14/15 16/12/15
f 27/28/16 18/29/16 17/14/16
f 18/29/8 29/30/8 19/16/8
f 29/30/17 20/19/17 19/16/17
f 30/31/18 11/1/18 20/19/18
f 31/32/19 22/22/19 21/20/19
f 32/33/20 23/23/20 22/22/20
f 33/34/3 24/24/3 23/23/3
f 34/35/21 25/36/21 24/24/21
f 25/26/22 36/37/22 26/27/22
f 36/37/23 27/28/23 26/27/23
f 27/28/24 38/38/24 28/39/24
f 28/39/8 39/40/8 29/30/8
f 39/40/25 30/31/25 29/30/25
f 40/41/26 21/20/26 30/31/26
f 41/42/27 32/33/27 31/32/27
f 42/43/28 33/34/28 32/33/28
f 43/44/3 34/35/3 33/34/3
f 44/45/29 35/46/29 34/35/29
f 45/47/30 36/37/30 35/48/30
f 46/49/31 37/50/31 36/37/31
f 47/51/32 38/38/32 37/50/32
f 48/52/8 39/40/8 38/38/8
f 49/53/33 40/41/33 39/40/33
f 50/54/34 31/32/34 40/41/34
f 51/55/35 42/56/35 41/57/35
f 52/58/36 43/59/36 42/56/36
f 53/60/3 44/61/3 43/59/3
f 54/62/37 45/63/37 44/61/37
f 55/64/38 46/65/38 45/66/38
f 56/67/39 47/68/39 46/65/39
f 57/69/40 48/70/40 47/68/40
f 58/71/8 49/72/8 48/70/8
f 59/73/41 50/74/41 49/72/41
f 50/74/42 51/55/42 41/57/42
f 61/75/5 52/58/5 51/55/5
f 62/76/4 53/60/4 52/58/4
f 63/77/3 54/62/3 53/60/3
f 64/78/2 55/79/2 54/62/2
f 65/80/1 56/67/1 55/64/1
f 56/67/10 67/81/10 57/69/10
f 57/69/9 68/82/9 58/71/9
f 68/82/8 59/73/8 58/71/8
f 59/73/7 70/83/7 60/84/7
f 70/83/6 51/55/6 60/84/6
f 61/75/14 72/85/14 62/76/14
f 72/85/13 63/77/13 62/76/13
f 73/86/3 64/78/3 63/77/3
f 74/87/12 65/88/12 64/78/12
f 75/89/11 66/90/11 65/80/11
f 76/91/18 67/81/18 66/90/18
f 77/92/17 68/82/17 67/81/17
f 78/93/8 69/94/8 68/82/8
f 69/94/16 80/95/16 70/83/16
f 80/95/15 61/75/15 70/83/15
f 81/96/22 72/85/22 71/97/22
f 82/98/21 73/86/21 72/85/21
f 73/86/3 84/99/3 74/87/3
f 74/87/20 85/100/20 75/101/20
f 75/89/19 86/102/19 76/91/19
f 86/102/26 77/92/26 76/91/26
f 87/103/25 78/93/25 77/92/25
f 88/104/8 79/105/8 78/93/8
f 89/106/24 80/95/24 79/105/24
f 90/107/23 71/97/23 80/95/23
f 91/108/30 82/98/30 81/96/30
f 92/109/29 83/110/29 82/98/29
f 93/111/3 84/99/3 83/110/3
f 84/99/28 95/112/28 85/100/28
f 95/113/27 86/102/27 85/114/27
f 86/102/34 97/115/34 87/103/34
f 87/103/33 98/116/33 88/104/33
f 98/116/8 89/106/8 88/104/8
f 99/117/32 90/107/32 89/106/32
f 100/118/31 81/96/31 90/107/31
f 91/108/38 2/2/38 92/109/38
f 2/2/37 93/111/37 92/109/37
f 3/5/3 94/119/3 93/111/3
f 4/7/36 95/112/36 94/119/36
f 5/11/35 96/120/35 95/113/35
f 6/10/42 97/115/42 96/120/42
f 7/13/41 98/116/41 97/115/41
f 8/15/8 99/117/8 98/116/8
f 9/17/40 100/118/40 99/117/40
f 10/18/39 91/108/39 100/118/39
f 11/1/1 12/21/1 2/2/1
f 2/2/2 12/21/2 13/4/2
f 3/5/3 13/4/3 14/6/3
f 14/6/4 15/25/4 5/8/4
f 15/9/5 16/12/5 6/10/5
f 16/12/6 17/14/6 7/13/6
f 17/14/7 18/29/7 8/15/7
f 8/15/8 18/29/8 19/16/8
f 19/16/9 20/19/9 10/18/9
f 20/19/10 11/1/10 1/3/10
f 21/20/11 22/22/11 12/21/11
f 22/22/12 23/23/12 13/4/12
f 23/23/3 24/24/3 14/6/3
f 24/24/13 25/36/13 15/25/13
f 25/26/14 26/27/14 16/12/14
f 26/27/15 27/28/15 17/14/15
f 27/28/16 28/39/16 18/29/16
f 18/29/8 28/39/8 29/30/8
f 29/30/17 30/31/17 20/19/17
f 30/31/18 21/20/18 11/1/18
f 31/32/19 32/33/19 22/22/19
f 32/33/20 33/34/20 23/23/20
f 33/34/3 34/35/3 24/24/3
f 34/35/21 35/46/21 25/36/21
f 25/26/22 35/48/22 36/37/22
f 36/37/23 37/50/23 27/28/23
f 27/28/24 37/50/24 38/38/24
f 28/39/8 38/38/8 39/40/8
f 39/40/25 40/41/25 30/31/25
f 40/41/26 31/32/26 21/20/26
f 41/42/27 42/43/27 32/33/27
f 42/43/28 43/44/28 33/34/28
f 43/44/3 44/45/3 34/35/3
f 44/45/29 45/121/29 35/46/29
f 45/47/30 46/49/30 36/37/30
f 46/49/31 47/51/31 37/50/31
f 47/51/32 48/52/32 38/38/32
f 48/52/8 49/53/8 39/40/8
f 49/53/33 50/54/33 40/41/33
f 50/54/34 41/42/34 31/32/34
f 51/55/35 52/58/35 42/56/35
f 52/58/36 53/60/36 43/59/36
f 53/60/3 54/62/3 44/61/3
f 54/62/37 55/79/37 45/63/37
f 55/64/38 56/67/38 46/65/38
f 56/67/39 57/69/39 47/68/39
f 57/69/40 58/71/40 48/70/40
f 58/71/8 59/73/8 49/72/8
f 59/73/41 60/84/41 50/74/41
f 50/74/42 60/84/42 51/55/42
f 61/75/5 62/76/5 52/58/5
f 62/76/4 63/77/4 53/60/4
f 63/77/3 64/78/3 54/62/3
f 64/78/2 65/88/2 55/79/2
f 65/80/1 66/90/1 56/67/1
f 56/67/10 66/90/10 67/81/10
f 57/69/9 67/81/9 68/82/9
f 68/82/8 69/94/8 59/73/8
f 59/73/7 69/94/7 70/83/7
f 70/83/6 61/75/6 51/55/6
f 61/75/14 71/97/14 72/85/14
f 72/85/13 73/86/13 63/77/13
f 73/86/3 74/87/3 64/78/3
f 74/87/12 75/101/12 65/88/12
f 75/89/11 76/91/11 66/90/11
f 76/91/18 77/92/18 67/81/18
f 77/92/17 78/93/17 68/82/17
f 78/93/8 79/105/8 69/94/8
f 69/94/16 79/105/16 80/95/16
f 80/95/15 71/97/15 61/75/15
f 81/96/22 82/98/22 72/85/22
f 82/98/21 83/110/21 73/86/21
f 73/86/3 83/110/3 84/99/3
f 74/87/20 84/99/20 85/100/20
f 75/89/19 85/114/19 86/102/19
f 86/102/26 87/103/26 77/92/26
f 87/103/25 88/104/25 78/93/25
f 88/104/8 89/106/8 79/105/8
f 89/106/24 90/107/24 80/95/24
f 90/107/23 81/96/23 71/97/23
f 91/108/30 92/109/30 82/98/30
f 92/109/29 93/111/29 83/110/29
f 93/111/3 94/119/3 84/99/3
f 84/99/28 94/119/28 95/112/28
f 95/113/27 96/120/27 86/102/27
f 86/102/34 96/120/34 97/115/34
f 87/103/33 97/115/33 98/116/33
f 98/116/8 99/117/8 89/106/8
f 99/117/32 100/118/32 90/107/32
f 100/118/31 91/108/31 81/96/31
f 91/108/38 1/3/38 2/2/38
f 2/2/37 3/5/37 93/111/37
f 3/5/3 4/7/3 94/119/3
f 4/7/36 5/8/36 95/112/36
f 5/11/35 6/10/35 96/120/35
f 6/10/42 7/13/42 97/115/42
f 7/13/41 8/15/41 98/116/41
f 8/15/8 9/17/8 99/117/8
f 9/17/40 10/18/40 100/118/40
f 10/18/39 1/3/39 91/108/39
