# Blender 4.2.1 LTS
# www.blender.org
mtllib pyramid.mtl
o Cone
v -1.000000 -1.009901 -1.000000
v 1.000000 -1.009901 -1.000000
v 1.000000 -1.009901 1.000000
v -1.000000 -1.009901 1.000000
v 0.000000 0.990099 -0.000000
vn -0.0000 0.4472 -0.8944
vn -0.0000 -1.0000 -0.0000
vn 0.8944 0.4472 -0.0000
vn -0.0000 0.4472 0.8944
vn -0.8944 0.4472 -0.0000
vt 0.500000 -0.000000
vt 0.500000 1.000000
vt 1.000000 -0.000000
vt -0.000000 0.000000
vt -0.000000 1.000000
vt 1.000000 1.000000
s 0
f 1/1/1 5/2/1 2/3/1
f 3/4/2 4/5/2 2/3/2
f 2/1/3 5/2/3 3/4/3
f 1/6/2 2/3/2 4/5/2
f 3/1/4 5/2/4 4/4/4
f 4/1/5 5/2/5 1/3/5
