# Blender 4.2.1 LTS
# www.blender.org
mtllib CornellBoxObj.mtl
o CornellBox
v 536.074524 -0.000366 992.133789
v 536.074524 1594.815186 992.133911
v -992.145813 1594.815186 536.086548
v -992.145813 -0.000366 536.086426
v 992.121765 -0.000244 -536.086548
v 992.121765 1594.815308 -536.086426
v -536.098572 1594.815308 -992.133789
v -536.098572 -0.000244 -992.133911
v -1506.947266 5285.643555 -1575.484131
v -1527.168579 5285.643555 -1555.262695
v -1506.947266 5263.331055 -1555.262695
v -1527.168335 5285.643555 -580.822998
v -1506.947021 5285.643555 -560.601746
v -1506.947144 5263.331055 -580.822998
v -290.868591 5285.643555 -1575.484131
v -290.868591 5263.331055 -1555.262817
v -270.647217 5285.643555 -1555.262817
v -290.868591 5285.643555 -560.601624
v -270.647278 5285.643555 -580.822998
v -290.868561 5263.331055 -580.822998
v -1506.947266 5324.619141 -1575.484131
v -1506.947266 5346.931641 -1555.262695
v -1527.168579 5324.619141 -1555.262695
v -1527.168335 5324.619141 -580.822998
v -1506.947144 5346.931641 -580.822998
v -1506.947021 5324.619141 -560.601746
v -290.868591 5324.619141 -1575.484131
v -270.647217 5324.619141 -1555.262817
v -290.868591 5346.931641 -1555.262817
v -290.868591 5324.619141 -560.601624
v -290.868561 5346.931641 -580.822998
v -270.647278 5324.619141 -580.822998
v -2294.155273 0.000244 -761.267883
v -2294.155273 3189.630859 -761.268494
v -2766.668701 3189.630615 -2284.478027
v -2766.668701 0.000061 -2284.477539
v -770.945618 0.000305 -1233.781372
v -770.945801 3189.630859 -1233.781982
v -1243.459351 3189.630615 -2756.991699
v -1243.459229 0.000061 -2756.991211
v -3524.071533 0.000183 -3771.496094
v -3555.000000 -0.000244 1633.478394
v 1788.113525 0.000122 -3771.496826
v 1788.114136 -0.000244 1633.477539
v 1788.114136 5304.453125 1633.478027
v 1788.113403 5304.454102 -3771.496582
v -3585.930420 5304.453125 -3771.495117
v -3585.929932 5304.453125 1633.478760
v -3524.071533 -55.084595 -3771.496094
v 1788.113525 -55.084534 -3771.496826
v -3555.000000 -55.085022 1633.478394
v 1788.114136 -55.084961 1633.477539
vn 0.9582 -0.0000 0.2860
vn -0.0000 1.0000 -0.0000
vn -0.9582 -0.0000 -0.2860
vn -0.0000 -1.0000 -0.0000
vn -0.2860 -0.0000 0.9582
vn 0.2860 -0.0000 -0.9582
vn 1.0000 -0.0000 -0.0000
vn -1.0000 -0.0000 -0.0000
vn -0.0000 -0.0000 -1.0000
vn 0.5954 0.5395 0.5954
vn 0.5954 0.5396 -0.5953
vn -0.5954 0.5395 0.5954
vn -0.5954 0.5395 -0.5954
vn 0.5954 -0.5395 0.5954
vn 0.5954 -0.5395 -0.5954
vn -0.5954 -0.5395 0.5954
vn -0.5954 -0.5395 -0.5954
vn -0.0000 0.6715 0.7410
vn 0.7410 0.6715 -0.0000
vn -0.0000 0.6715 -0.7410
vn -0.7410 0.6715 -0.0000
vn -0.0000 -0.6715 0.7410
vn 0.7410 -0.6715 -0.0000
vn -0.0000 -0.6715 -0.7410
vn -0.7410 -0.6715 -0.0000
vn 0.7071 -0.0000 -0.7071
vn -0.7071 -0.0000 -0.7071
vn -0.7071 -0.0000 0.7071
vn 0.7071 -0.0000 0.7071
vn -0.0000 -0.0000 1.0000
vn 0.2963 -0.0000 0.9551
vn -0.2963 -0.0000 -0.9551
vn -0.9551 -0.0000 0.2963
vn 0.9551 -0.0000 -0.2963
vn 0.9999 0.0117 0.0057
vn 1.0000 -0.0000 0.0057
vn 1.0000 0.0058 -0.0000
s 0
usemtl box_Material
f 6//1 1//1 5//1
f 7//2 2//2 6//2
f 8//3 3//3 7//3
f 5//4 4//4 8//4
f 2//5 4//5 1//5
f 7//6 5//6 8//6
f 38//31 33//31 37//31
f 38//2 35//2 34//2
f 40//32 35//32 39//32
f 37//4 36//4 40//4
f 34//33 36//33 33//33
f 39//34 37//34 40//34
f 44//9 51//9 42//9
f 6//1 2//1 1//1
f 7//2 3//2 2//2
f 8//3 4//3 3//3
f 5//4 1//4 4//4
f 2//5 3//5 4//5
f 7//6 6//6 5//6
f 38//31 34//31 33//31
f 38//2 39//2 35//2
f 40//32 36//32 35//32
f 37//4 33//4 36//4
f 34//33 35//33 36//33
f 39//34 38//34 37//34
f 44//9 52//9 51//9
usemtl Emitter
f 10//7 24//7 12//7
f 19//8 28//8 17//8
f 14//2 16//2 11//2
f 29//4 25//4 22//4
f 13//9 30//9 18//9
f 9//10 10//10 11//10
f 12//11 13//11 14//11
f 15//12 16//12 17//12
f 18//13 19//13 20//13
f 21//14 22//14 23//14
f 24//15 25//15 26//15
f 27//16 28//16 29//16
f 30//17 31//17 32//17
f 15//18 11//18 16//18
f 12//19 11//19 10//19
f 18//20 14//20 13//20
f 17//21 20//21 19//21
f 29//22 21//22 27//22
f 25//23 23//23 22//23
f 31//24 26//24 25//24
f 29//25 32//25 31//25
f 24//26 13//26 12//26
f 19//27 30//27 32//27
f 28//28 15//28 17//28
f 10//29 21//29 23//29
f 15//30 21//30 9//30
f 10//7 23//7 24//7
f 19//8 32//8 28//8
f 14//2 20//2 16//2
f 29//4 31//4 25//4
f 13//9 26//9 30//9
f 15//18 9//18 11//18
f 12//19 14//19 11//19
f 18//20 20//20 14//20
f 17//21 16//21 20//21
f 29//22 22//22 21//22
f 25//23 24//23 23//23
f 31//24 30//24 26//24
f 29//25 28//25 32//25
f 24//26 26//26 13//26
f 19//27 18//27 30//27
f 28//28 27//28 15//28
f 10//29 9//29 21//29
f 15//30 27//30 21//30
usemtl cbox_Material
f 47//4 45//4 48//4
f 46//30 41//30 43//30
f 49//2 52//2 50//2
f 41//30 50//30 43//30
f 47//4 46//4 45//4
f 46//30 47//30 41//30
f 49//2 51//2 52//2
f 41//30 49//30 50//30
usemtl cbox_red
f 47//35 42//35 41//35
f 42//36 49//36 41//36
f 47//37 48//37 42//37
f 42//36 51//36 49//36
usemtl cbox_green
f 45//8 43//8 44//8
f 43//8 52//8 44//8
f 45//8 46//8 43//8
f 43//8 50//8 52//8
